<?xml version="1.0" standalone="no"?>
<!DOCTYPE svg PUBLIC "-//W3C//DTD SVG 1.1//EN" "http://www.w3.org/Graphics/SVG/1.1/DTD/svg11.dtd" >
<svg xmlns="http://www.w3.org/2000/svg">
<metadata>Generated by IcoMoon</metadata>
<defs>
<font id="iconfont" horiz-adv-x="1024">
<font-face units-per-em="1024" ascent="960" descent="-64" />
<missing-glyph horiz-adv-x="1024" />
<glyph unicode="&#x20;" d="" horiz-adv-x="512" />
<glyph unicode="&#xe600;" d="M132.198 261.581c-13.926-13.722-36.301-13.722-50.125 0s-13.875 35.891 0 49.613l404.89 400.896c13.824 13.722 36.198 13.722 50.125 0l404.89-400.896c13.824-13.722 13.824-35.891 0-49.613-13.875-13.722-36.301-13.722-50.074 0l-379.904 365.619-379.802-365.619z" />
<glyph unicode="&#xe602;" d="M248 697h69q8 0 8 7-1 61-1 77 0 10 2 19t6 16l2 5-1-1-135-134q-1 0-1-1 7 3 7 4 9 4 20 6t24 2zM791 711q-7 39-39 51-27 9-96 17-42 5-102 4-1 10-6 19t-12 16-16 10q-28 12-72.5 13t-53.5-4q-6-2-11-4t-10-5-9-6.5-7-8.5q-5-6-7.5-14t-2.5-18q0-4 0.5-12t0.5-15v-50q0-11-8-19t-19-8h-70q-21 0-35-7-6-3-11-7t-9-9q-11-14-11-43l4-38q4-36 17-102.5t26-92.5q6-13 11.5-19t16.5-11q10-4 25-8.5t31-8.5 33-8 32-6.5 26-3.5q6-1 14.5-2.5t13.5-2 11.5-1 10.5 0.5 8.5 3 7.5 6 6 10q1 0 7 17 13 41 13 90 1 2 3 0v-3q0-12 1-20.5t4-23.5 12-25.5 23-15.5q12-5 35-9t53-7q28-3 42-22.5t14-76.5q0-43-18-52-14-6-48-6h-20q-5 0-15.5 1t-13 3-7 6-5.5 10-1 15q0 4 1 8t3 6.5 4 4.5 6 3 6 2 7.5 1 7.5 0.5 7.5 0 7.5-0.5q4 0 4.5 2t-1 9.5-1.5 13.5q0 5 1 10t2.5 8 2 5.5-0.5 3.5-4 2q-22 0-40.5-0.5t-32.5-5-23.5-14-14.5-27.5-5-45q0-66 35-84 29-14 100-14 29 0 43.5 1t32 6 27.5 17 20.5 31.5 20.5 51.5q7 23 16.5 71t16.5 118q4 47-2 162.5t-14 155.5zM649 489q-7 0-14.5-0.5t-13.5-1.5q5 46 41 45 22-1 29.5-16.5t7.5-37.5q-10 5-23 7.5t-27 3.5z" />
<glyph unicode="&#xe603;" d="M935 570l-277 40q-93 189-123 252-8 16-23.5 16t-23.5-16l-124-251q-207-31-276-41-12-1-18-9t-5.5-18 8.5-18q50-49 200-195-35-208-47-277-3-17 9.5-26.5t28.5-1.5q27 15 89 47.5t110 57.5l48 26q21-11 53.5-28t99.5-52.5 95-50.5q15-8 27.5 1.5t9.5 26.5q-25 146-37 218 41 13 50 25l-52-13q-77-13-158.5-18.5t-158.5-2.5-141 15q39 28 109.5 77t117 83 69.5 55q-19 2-40 4t-38 4-42.5 3.5-40 3-44.5 3-43 2.5-48.5 2.5-47.5 2.5q60 28 237.5 29t270.5-21q-25-20-47.5-37t-46-33.5-38.5-27.5-40.5-28-36.5-24-42.5-27.5-42.5-27.5q30-6 67.5-10t67.5-5.5 77-3 77-3.5l-1 8q-1 4-1.5 8t-1 6.5-0.5 4.5-1 3v1q150 148 200 196 13 13 8 28t-22 17z" />
<glyph unicode="&#xe605;" d="M512 896q-91 0-174-35.5t-143-95.5-95.5-142.5-35.5-174 35.5-174 95.5-142.5 143-95.5 174-35.5 173.5 35.5 142.5 95.5 95.5 142.5 35.5 174-35.5 174-95.5 142.5-142.5 95.5-173.5 35.5zM511.5 42q-110.5 0-204 54.5t-147.5 148-54 204 54 204 147.5 148 204 54.5 204-54.5 148-148 54.5-204-54.5-204-148-148-204-54.5zM512 820q-97 0-183-51.5t-137-137-51-182.5 51-183 137-137 183-51 182.5 51 137 137 51.5 183-51.5 182.5-137 137-182.5 51.5zM514 673q35 0 60.5-29.5t25.5-67.5q0-39-26-76t-60-37-60 37-26 76q0 38 25.5 67.5t60.5 29.5zM672 284q-11-14-21-18-9-4-139 0-130-4-140 0-4 2-9.5 6t-8.5 8l-3 4v71q8 29 27.5 45.5t34.5 19.5l15 2 30-106q9-11 17-11t13 6l4 5v100q3 4 7.5 7.5t8.5 3.5l3 1q14-1 20-12v-100q2-3 5-6t12-4 17 10l30 106q2 0 6-0.5t15.5-4.5 20.5-10.5 19.5-20 15.5-31.5v-71z" />
<glyph unicode="&#xe606;" d="M828 240q-39 0-72.5-18.5t-53.5-50.5l-389 215q24 38 24 81 0 16-3.5 31t-9.5 29l379 196q10-15 23.5-27.5t29.5-21.5 34.5-13.5 37.5-4.5q63 0 107 44t44 107-44 107-107 44-107-44-44-107q0-2 0.5-5.5t0.5-5.5l-403-208q-19 15-42 22.5t-47 7.5q-63 0-107-44t-44-107 44-107 107-44q7 0 14.5 0.5t14.5 2 14 4 13.5 5 12.5 5.5l423-233q0-1-0.5-5t-0.5-6q0-63 44.5-107t106.5-44q41 0 76 20t55 55 20 76-20 76-55 55-76 20zM828 883q21 0 38-10.5t27.5-27.5 10.5-38q0-31-22.5-53.5t-53.5-22.5q-20 0-37.5 10.5t-28 27.5-10.5 38q0 31 22.5 53.5t53.5 22.5zM185.5 391q-31.5 0-53.5 22.5t-22 53.5 22 53.5 54 22.5q20 0 37.5-10.5t27.5-27.5 10-38q0-31-22-53.5t-53.5-22.5zM828 13q-31 0-53.5 22.5t-22.5 53.5 22.5 53.5 53.5 22.5 53.5-22.5 22.5-53.5q0-15-6-29t-16-24.5-24.5-16.5-29.5-6z" />
<glyph unicode="&#xe609;" d="M427 949v-320q0-166-83.5-302.5t-218.5-201.5q-119 141-119 326 0 123 55 230t151 177q97 71 215 91zM753 8q-57-31-117.5-46.5t-125.5-15.5q-129 0-242 62 91 57 155.5 138.5t86.5 177.5q23-95 87-177 65-82 156-139zM1018 451q0-185-119-326-134 65-218 201-83 137-83 303v320q118-20 214-90.5t151-177.5q19-36 31-73.5t18-76.5 6-80v0z" />
<glyph unicode="&#xe60d;" d="M322 534q-16-25-29-53t-21-48.5-13.5-40.5-7.5-27.5-3-12.5q-3-18 13-27t30 3l1 2q8 14 16.5 28.5t35 47.5 55.5 57 76.5 45 99.5 23v-124q0-18 16-24l10-2q11 0 19 8l267 198q5 5 6.5 11.5t0 13-6.5 11.5l-266 201q-12 13-28.5 6.5t-16.5-24.5v-101q-62-12-104-30t-78.5-52-71.5-89zM863 383q-4 0-8-1t-7.5-3-6.5-5-5-6.5-3.5-7.5-1.5-9v-224h-640v640h224q14 0 23 9.5t9 23-9 22.5-23 9h-256q-10 0-18-5t-11-14q-1-2-2-5v-1q-1-1-1-2v-709q0-13 9.5-22.5t22.5-9.5v0h704q14 0 23 9.5t9 22.5v256q0 14-9 23t-23 9z" />
<glyph unicode="&#xe619;" d="M224 352q-40 0-68 28t-28 68 28 68 68 28 68-28 28-68-28-68-68-28zM512 352q-40 0-68 28t-28 68 28 68 68 28 68-28 28-68-28-68-68-28zM800 352q-40 0-68 28t-28 68 28 68 68 28 68-28 28-68-28-68-68-28z" />
<glyph unicode="&#xe61e;" d="M293 531q99 74 157.5 158t41.5 150q-10 40 14 69 23 26 62 26h11q47-6 81-49 15-20 24-43.5t10-47.5q1-46-9-93.5t-30-103.5v-5q35-3 90-5 23-1 45-2h40q13 0 22-0.5t17-1.5q39-5 66-31t32-63q4-39-23-66 15-8 26.5-18.5t18.5-24.5 9-29q2-20-3.5-38.5t-18.5-32.5-31-21q12-11 19.5-24.5t8.5-31.5q4-33-17-58.5t-59-33.5q19-22 15-56-6-60-75-81-39-12-104-12h-21q-264 1-419 84v485zM244 13h-218v551h218v-551z" />
<glyph unicode="&#xe620;" d="M316 840q23 3 47 3h3q24 0 47-3 9-1 19-3 4 0 7.5-0.5t6.5-1.5 6-1.5 6-1.5q6-1 11-2t10-3q2 0 4-1t5-1q1-1 2.5-1.5t2.5-0.5 3-1q4-1 7.5-2.5t6.5-2.5q4-1 7-2 3-2 7-3 3-1 6-3l6-2 5-3 6-2q2-1 5-3 1 0 2.5-1t2.5-1q3-2 5-3t4.5-2.5 4.5-2.5q3-2 4-2 3-2 4-3 2-1 5-3 1 0 2-0.5t2-1.5 4-3h1l2-2 4-3q1 0 2-1t2-1l3-3 4-2q0-1 1-1.5t2-1.5q2-1 3-2t2-1.5 1-1.5q3-2 4-2l3-3v-1l3-2h1l2-2q1-2 2-3 1 0 2-2h1l3-3q1-1 3-2 1-2 2-3 1 0 1.5-1t1.5-1l2-3q1 0 1.5-1l0.5-1 3-3 2-3q1 0 1.5-1t1.5-1q1-2 2-3l2-2q1-1 2-3l4-4q1-1 1.5-2t0.5-2h2v-2q1 0 2-1v-1q1-2 2-3l1-1 1-2q1 0 2-2l2-3v-1q1 0 1-1l1-1q1-1 1-1.5t0.5-1.5 1-1.5l1.5-1.5v-1l1-1q1-1 1-1.5v-1.5l3-3q0-1 0.5-2t1-1 1-1 0.5-2v-1l1-1 1-2v-1l2-2q0-1 0.5-1.5t0.5-1.5l1-1q0-1 0.5-1.5t0.5-1 0.5-1 0.5-1.5l1-1 1-3v-1l1-1q1-2 1-3v-1l1-1q0-1 1-3v-1q1-1 1-2 1 0 1-2l1-1v-2l1-1v-1q1-2 1-3l1-1v-3l1-1v-1q0-1 0.5-1.5t0.5-2.5l1-2 1-3v-3l1-1v-1l1-2v-3q1-1 1-3v-1q-5 0-9.5 0.5t-9.5 0.5q-4 0-7.5 0.5t-7.5 0.5q-8 0-17-1-5 0-10-1h-8q-5-1-10-1-8-1-16-3l-12-2q-6-2-10-3-3 0-5-1t-5-1q-1-1-2-1l-4-2h-2l-7-3-7-2q-4-1-7-2.5t-6-2.5q-3-2-6-3l-5-2-10-5q-3-2-5-3l-5-2-8-6q-2 0-3-0.5t-1.5-1.5-1.5-1l-3-2q-1-1-3-2-3-2-4-3-1 0-3-2h-1l-3-3-3-2q-1-1-3-2l-2-2q-1-1-2-1.5t-2-1.5l-3-3-1-0.5t-3-2.5l-2-1-1-2q-2-1-3-2t-2-3h-1q-1-2-2-2-1-1-2-3h-1l-7-7q-1-2-2-3l-1-2h-2v-2l-2-1q-1-1-2-3l-2-2q-1-2-2-3l-4-4v-1l-4-4v-1q-1-2-2-3l-2-2v-1l-1-1q-1-1-2-3-1-1-1-1.5t-1-1.5l-2-2q0-1-1-3l-2-2q0-1-0.5-1.5t-0.5-1-0.5-1.5l-0.5-1-2-2v-1q-1-2-2-3t-1-2l-1-2v-2h-2v-2l-1-1-1-3q-1-1-1-3l-3-3v-3l-1-1v-1q-1-1-1-1.5v-1.5l-1-1q-1-2-1-3v-1q-1-1-1-1.5t-1-1.5v-1l-1-2q0-1-0.5-1.5t-0.5-1.5-1-3v-1q0-1-1-1v-3q-1-1-1-2l-1-1v-3q-1-1-1-2t-0.5-1.5-0.5-1.5v-1q-1-2-1-3v-2l-1-2v-1q0-1-1-3v-2q0-1-1-2v-3q-1-2-1-3v-2q0-1-0.5-1.5t-0.5-1.5v-5l-1-2v-6l-1-1v-9l-1-2v-36l1-1v-9q0-1 1-2v-6q0-1 1-2v-3q0-2 0.5-2.5t0.5-1.5v-3q1-1 1-3v-2q1-1 1-2v-1q0-2 1-3v-2l1-3v-2l1-1v-2q0-1 1-2v-3l1-1-18-1q-8-1-16-1-3 0-6.5 0.5t-7.5 0.5q-5 0-10 0.5t-9.5 1-9.5 0.5q-2 0-4.5 0.5t-4.5 1-4 0.5-5 1q-6 1-14 2-3 1-6.5 1.5t-6.5 1.5q-6 1-13 2-3 1-6 1.5t-6 1.5-6 1.5-6 0.5l-5-2-5-3-5-2-5-3-5-2-5-3-5-2-5-3-5-2-5-3-5-2-10-6-5-2-6-3-5-2-5-3-5-2-5-3-5-2-5-3-5-2-10-6-4-1 1 1 1 3v3l1 2 1 3 1 2 1 3 1 2 1 3v2l1 3 1 2 2 6 1 2v3l1 2 1 3 1 2 1 3 1 2 1 3v2l1 3 1 2 2 6 1 2v3l1 2 1 3 1 2 1 3 1 2 1 3v2l2 6 1 2 1 3 1 2v3l1 1q-1 1-2 1l-3 3q-1 0-4 2 0 1-1 1l-4 4h-1q-2 1-4 3l-3 3q-2 1-3 2-3 2-3 3l-1 1-2 1h-1l-2 3-3 2-3 3q-2 1-3 2l-3 3q-1 1-3 2-2 2-2 3l-3 2-2 1q0 1-0.5 2t-2.5 3q-2 1-3 2 0 1-1 1.5t-1 1.5l-3 2q0 1-1 2-1 0-1 1l-5 5q-1 2-2 2l-1 2-1 1q-1 2-2 2l-2 1v1.5t-2 3.5l-2 2q-1 1-2 2.5t-2 2.5q0 1-2 3l-2 2q-1 2-2 3l-1 2-2 3q-1 2-2 2 0 1-1 3-2 2-2 2.5t-1 1.5v1q-1 1-2 3-1 1-1.5 2.5t-1.5 2.5l-1 1q0 1-1 2t-1 1.5-1 2.5-1 3l-2 2q0 1-0.5 1.5t-0.5 1.5-0.5 1.5-0.5 1.5l-1 2q-1 2-1 3-1 0-2 2 0 1-0.5 2.5t-1.5 2.5q0 2-1 3l-1 2v2l-0.5 1t-0.5 2h-1v3h-1v2q-1 1-1 3-1 2-1 3t-1 2v3l-1 2-1 3-1 2v3q-1 1-1 2v3q0 1-1 2v3q0 1-0.5 1.5t-0.5 1.5v2q0 1-1 3v2q0 2-1 3v7l-1 3v8q-1 1-1 2v34l0.5 0.5t0.5 1.5v10q1 0 1 1v6q0 1 1 2v3q0 1 0.5 2t0.5 2v3q0 1 1 1v3q0 2 0.5 2.5l0.5 0.5v3l1 1v4l1 1v1l1 2v2q0 1 1 3l1 3v2q1 1 1 2v1l1 2 1 3 1 1v1q1 2 1 3l1 2v2l1 1v1q0 1 0.5 1.5t0.5 1.5 1 1l1 3v1q0 1 0.5 1.5t1.5 2.5l1 2q1 2 1 2.5t1 1.5v1q1 1 2 3v1l1 1q1 2 1 3l1 1q0 1 0.5 1.5t0.5 1.5l1 1q1 2 1 3h1l1 2q0 1 1 2v2q1 1 2 1l1 3q1 0 1 0.5t1 1.5q0 1 1 2t2 3l1 1 1 2q1 1 1 2l2 3q2 2 2 2.5t1 1.5l1 1v1l4 4q0 1 1 2 1 0 1 1l2 2q0 1 2 3l2 2 1 2 1 1 1 2h1l3 3q0 1 2 3h1q1 1 1.5 2t1.5 2l1 1q1 2 2 2l13 13q2 2 3 2l6 6q1 0 3 2l3 3q1 0 1 1l2 1q1 1 2 1.5t1.5 1 3 2.5 3.5 3l4 2 3 3q1 0 1.5 0.5t2.5 1.5l1 1 3 2q1 1 2 1.5t2 0.5q2 2 4 3 1 1 2 1.5t2 1.5q1 0 4 2l1 1 3 2q2 0 5 2 2 1 5 3t4.5 2.5 5.5 2.5q2 1 5 2l1 1 4 2 9 3 3 2q3 1 6 3 4 1 7 2 4 1 7 3l8 2 7 3q4 1 9 2t10 2.5 10 2.5q3 1 6 1.5t6 1.5l14 2q10 2 19 3zM615 431q-13 0-24.5-11t-11.5-24q0-7 3-13.5t8-11.5 11.5-8 13.5-3q19 0 32 10.5t13 25.5q0 6-3.5 12.5t-9 11.5-14 8-18.5 3zM812 431q-9 0-17.5-5t-13.5-13.5-5-16.5q0-14 11-25t25-11q13 0 23 5t15.5 13 5.5 18q0 14-12.5 24.5t-31.5 10.5zM248 691q-21 0-37.5-13t-16.5-32 16.5-32 37.5-13q20 0 32.5 12.5t12.5 32.5q0 7-1.5 13t-4 11-6.5 8.5-9 6.5-11 4.5-13 1.5zM499 601q20 0 32 12.5t12 32.5-12 32.5-32 12.5q-14 0-26-5.5t-20-16-8-23.5q0-30 33-41 11-4 21-4zM488 490q1 1 2 1 0 1 0.5 1t1.5 1l4 4h1l1 2q1 0 3 2l2 2q1 0 2 1l2 2 1 2q1 0 3 1 3 2 3 3 1 0 2 1l1 1 3 2 4 2q1 1 3 2.5t3 1.5l3 3q3 1 4 1.5t4 2.5l3 2 4 2q1 1 3 2h1q2 1 4 3l4 2q2 0 5 2 3 1 5 2 1 1 2 1.5t2.5 1 2.5 1 3 0.5l5 2q3 2 6 3l12 4 7 2q3 1 7 2t8 3q2 0 3 0.5t2.5 0.5 3.5 1q6 1 10 2l12 2 16 2q10 1 20 1.5t21 0.5h1q20 0 39-2 8-1 15-2 3-1 6-1.5t6-0.5q4-1 10-2 1-1 2.5-1t3-0.5 3.5-0.5q4-2 7.5-3t7.5-2l6-2q3-1 7-2 2-1 5-2t6-3l5-2q2 0 3-0.5t2-1.5l10-4q3-2 4-2l2-2h2l5-2q3-2 4-3t3.5-2 3.5-2q3-2 4-2 1-1 3-2l4-3 3-2q1 0 2-0.5t1-1.5l4-2q0-1 3-2l2-2q1-1 3-2l1-1h1l1-2q1 0 2-1l1-1 6-4v-1l2-1q1-1 3-2l2-3q1 0 3-2l5-5 2-1q0-1 1-2h1l2-3h1l1-2 2-2q1 0 2-1v-1l2-1v-1l2-1v-2l2-1v-1h1l1-2h2v-2l2-2q1-2 2-2 0-1 1-2l1-1 1-2h1l1-2q0-1 1-2l2-2v-1q1-1 2-1v-1l3-3q0-1 0.5-1.5t0.5-1.5l1-2q1 0 1-1l1-1q1-2 1.5-2.5t0.5-1.5h1q0-2 1-2 0-1 0.5-1.5t0.5-1.5l1-1v-1q1 0 1-1t0.5-1 1-1 0.5-1.5 1-1.5q0-1 1-2.5t1-2.5l1-2h1v-2q1 0 1-2 1-1 1-2l1-2q0-1 0.5-1.5t0.5-1.5l1-1v-1q1-1 1-2l1-1v-1q0-1 1-2v-2h1v-2l1-3 1-1v-2l1-1v-2q0-1 1-2 0-2 1-2v-3l1-1v-3l1-2v-1q0-1 1-2v-4q1-1 1-2v-2l1-2v-4l1-3v-3q0-1 1-2v-8l1-1v-33l-1-2v-7l-1-2v-4l-1-2v-5q-1-1-1-2v-2h-1v-4q0-1-0.5-1.5l-0.5-0.5v-2l-0.5-0.5t-0.5-1.5-1-3v-2q-1-1-1-3l-1-1v-1l-1-2v-2l-2-4q0-1-0.5-2t-1.5-2v-3q-1 0-1-1v-1q-1-1-1-2l-1-1v-1l-1-1v-1l-1-2q-1-1-1-3-1 0-1-1l-1-1q0-1-0.5-1.5t-1.5-2.5l-1-2q0-1-1-2v-2h-2v-1.5t-1-1.5q0-1-1-2l-1-2-2-2-2-4q-1-1-1-1.5t-1-1.5q0-1-1-2l-2-2-1-2-2-2q0-1-1-2t-2-3l-2-2v-1q-1 0-1-1l-4-4q0-1-1-1v-1q-1-1-2-3l-10-10q0-1-0.5-1.5t-1.5-0.5l-1-2-1-1v-1l-2-1-4-4q-1-2-2-2.5t-2-2-2.5-2.5-2.5-2l-4-4q-1-1-3-2 0-1-0.5-1.5t-1.5-0.5q-1-2-2-3l-3-2q-1 0-2-2-1 0-3-2l-2-1q0-1-1-1l-5-5h-1l-4-4q-1 0-2-1t-1.5-1-2.5-2l-1-1v-1l1-2 1-3v-2l2-4v-2l1-2 1-3v-2l2-4v-2l1-2 1-3v-2l2-4v-2l1-2v-3l2-4v-2l2-4v-2l1-3 1-2v-2l2-4v-2l1-3 1-2v-2l2-4v-2l1-3v-2l1-1-3 1-4 2-4 3-16 8-3 2-4 3-20 10-4 3-24 12-4 3-12 6h-2q-3-1-8-2-2-1-4.5-1.5t-4.5-0.5q-5-1-9-2-2-1-4.5-1.5t-4.5-1.5q-6-1-11-2t-11-2q-4 0-7.5-1t-6.5-1q-6-1-11.5-1.5t-10.5-0.5h-28q-13 0-27 2-4 0-8 1t-8 1h-4l-4 2h-4q-4 1-10 2-4 2-9 3-1 0-2.5 0.5t-2.5 0.5-3 1q-4 1-7 2t-7 2q-2 1-6 2-2 1-6 2l-5 3-6 2q-3 1-5 2t-5 2l-4 2q-3 2-5 2l-4 3q-1 0-4 2-3 1-4 2-1 0-4 2-1 0-4 2t-3.5 2.5-3 2-3.5 2.5q-1 0-4 2l-3 2q-2 1-3 2l-2 2h-1l-3 2-4 4h-2v2l-2 1-3 2-2 2h-1l-5 5q-2 1-2 2l-3 2-2 2q0 1-2 2v0l-13 13-1 2h-1v1l-3 3v1l-2 2q-1 0-2 1v1q0 1-0.5 1.5t-1.5 0.5v1l-2 1q0 1-1 2l-1 1-2 4q-1 0-1.5 0.5t-0.5 1.5q-1 2-2 3t-1 2l-1 1q-1 1-2 3l-2 2v1t-0.5 1-1.5 1v1q-1 2-2 2v2h-1q0 1-1 3l-1 2-1 1v1q-1 1-1 2-1 1-1 2h-1q0 1-1 1v2l-1 2-1 1v1l-1 2q0 1-1 2 0 1-1 2 0 1-1 2v2q-1 1-1 2h-1v2q-1 1-1 3-1 1-1 2l-1 2q0 1-1 1v4q-1 1-1 2l-1 1v3h-1v2l-1 2v3q-1 0-1 1t-1 3v3l-1 1v2q0 1-1 3v4q-1 0-1 1v3l-1 2v5l-1 1v8l-0.5 0.5t-0.5 1.5v12q0 1-0.5 1.5l-0.5 0.5v14l0.5 0.5t0.5 1.5v13q1 1 1 2v7h1v6q1 1 1 2v4h1v5l1 1v3l1 2v2l1 1v3l1 1v2l1 2v1q0 1 0.5 1t0.5 1v2q1 1 1 1.5t0.5 1 0.5 1.5 0.5 1.5 0.5 1.5 1 2v1q1 1 1 2v1q0 1 1 2l1 1v3h1v2l2 4v2h1l1 1v1q0 1 1 1 0 1 0.5 1.5t0.5 1.5v1h1q0 1 0.5 2t1.5 2q0 1 0.5 1.5t0.5 1.5q1 1 1 1.5t0.5 1 0.5 1.5l2 2q1 1 1 1.5t1 2.5 1.5 2.5 0.5 1.5h1q0 1 1 3 2 1 2 2l1 1v1q1 1 1.5 2t1.5 2l2 2 1 2q1 1 1 1.5t1 1.5l2 2 1 2q2 1 2.5 2t0.5 2h1v1l2 1v2l2 1 2 2 1 2q1 0 1 1l5 5h1q1 1 2 3 1 1 2 1.5t2 2.5q1 0 1.5 0.5t0.5 1.5z" />
<glyph unicode="&#xe623;" d="M420 711q0 51 44 78 23 14 48 14 38 0 65-27t27-65q0-25-12.5-46.5t-33.5-33.5-46-12q-38 0-65 27t-27 65zM420 438q0 51 44 78 23 14 48 14 38 0 65-27t27-65-27-65-65-27-65 27-27 65zM420 165q0 51 44 78 23 14 48 14 38 0 65-27t27-65-27-65-65-27-65 27-27 65z" />
<glyph unicode="&#xe62a;" d="M370 180q-11-5-21.5 0t-14.5 17l-170 582q-3 7-1 12t6.5 5 11.5-3l670-377q11-6 10.5-13.5t-11.5-12.5l-175-77q-11-5-25.5-2t-22.5 11l-416 424q-5 4-7 6-3 3-3 1l7-10 347-451q4-6 4.5-13.5t-3-13-11.5-9.5zM616 109q1-9-3.5-11.5t-11.5 1.5l-123 78q-5 3-6.5 6.5t0.5 7 8 6.5l100 46q4 1 7.5 1t6.5-1.5 5-4.5 3-7z" />
<glyph unicode="&#xe634;" d="M672 822q49 1 81.5-13.5t63.5-43.5q38 3 94 31 1 1 4.5 2.5t5 2.5 4.5 2.5 5 3 4 2.5q-21-57-59-86-2-2-4-3l-4-4-4-2-4-4-4-2q17 0 34.5 4.5t39.5 13 29 10.5v-1q-3-4-6-9t-6.5-10-7.5-10l-8-8-8-10-8.5-8.5t-8.5-8-9-7.5q-1-1-3-2.5t-3.5-2.5-3-2.5-3-2.5-3-2.5-3.5-2.5-3-3l-4-2-2-3q0-75-9-118-23-103-71-183t-120.5-136.5-168.5-85.5q-54-17-125.5-21t-133.5 10q-63 16-108 35l-14 6q-7 3-13 6.5t-12.5 7-12.5 7.5q-10 6-16 10l28-3q28-2 30 1 8 1 26 2t27 3q67 15 110 40 3 2 9.5 5.5t11.5 6.5 10.5 6.5 10.5 7 8 7.5q-26-1-55 9-82 29-116 118 68-8 82 3-24 2-61 25-86 54-86 157 4-2 8.5-4t10.5-5q13-6 38-11 1 0 4.5-1t5.5-1 5-0.5 6-0.5 4 1q-5 5-17 14t-17 15q-64 80-41 167 2 8 5.5 17t6.5 16 7 15q1 0 1-1 2-4 9-11l8-8q21-26 55-52 35-28 66.5-47t70.5-34.5 87-27.5q43-10 82-10-5 19-4.5 43t5.5 43q6 22 16 40.5t23 34 29.5 27.5 35.5 21q17 7 41 12z" />
<glyph unicode="&#xe66e;" d="M743 458q-17 4-21.5 10.5t-1.5 11.5l4 6q0 1 1.5 3.5t4.5 9.5 5 14 2.5 17.5-0.5 20-6.5 20-14.5 19.5q-15 15-39.5 20t-49 1-47-10-36.5-12l-14-6q-10-3-17.5-4.5t-11.5 0-6 3.5-1.5 8 1 10 3 13.5 3.5 15.5q0 13-2 24.5t-7 25.5-16 23-26.5 14.5-41 3-57.5-13.5q-37-13-77-39.5t-68-52-55-56-35.5-41.5-13.5-18q-72-96-70-182l1-7q6-53 31.5-94.5t61-67.5 84-44 93-26.5 94.5-12.5q81-6 168 13.5t162 66.5 106 113q16 33 19 62t-5 49.5-20.5 37-29.5 27-30 16.5-24 8zM408 117q-118-6-201 46t-83 131q0 78 82.5 134.5t201.5 61.5q120 6 202.5-39.5t82.5-122.5q0-81-85-143-84-63-200-68zM377 421q-114-13-136-114-7-29-4-53-1-47 43-71 71-35 134-21t101 64q15 18 20 45.5t-2.5 55.5-24.5 51.5-51.5 35.5-79.5 7zM337 212.5q-22-2.5-37.5 9t-15.5 29.5q0 19 14.5 35t35.5 19q25 2 40.5-10t15.5-31-15.5-34-37.5-17.5zM430 292q-7-5-15-4.5t-12 7.5q-5 6-3 15.5t9 14.5q6 4 12 5t10.5-1 6.5-6q3-5 3-10.5t-3-11-8-9.5zM820 523h4q3 0 5 1l4 2q2 1 3.5 2.5t3 3.5 2.5 4l2 4q1 2 1 4v3q14 124-84 143-30 6-58 1-10 0-18-7.5t-8-18.5 8-18.5 18-7.5q34 7 54 0.5t28-21.5 10-30.5 0-27.5l-1-12q0-4 1-8t3.5-7 6-5.5 7.5-3.5 8-1zM801 826q-55 13-129-1-1 0-2-1t-2-1h-1q-12-4-19.5-14t-7.5-23q0-8 3-15t8-12 12-8 14-3q21 3 34 8 6 1 19.5 2.5t36-4.5 45-14.5 46.5-28.5 40-47q29-65 12-126-8-18-8-36 0-15 11-24.5t27-9.5q10 0 16 1.5t12 9 8 21.5q13 43 15 81.5t-5 69-21.5 57-33 45.5-41.5 34-45 24.5-44 14.5z" />
<glyph unicode="&#xe696;" d="M209 491l-2 5-1 7-1 4v14l2 6 1 6 3 7 2 7 4 8 5 7v5l1 5 1 7 2 7 2 9 2 3 4 8 3 2v19l1 10 2 11 3 13 6 21 3 9 3 7 4 8 4 10 4 8 5 9 6 9 3 5 3 4 14 20 7 9 9 10 9 9 9 10 11 10 8 7 8 6 9 7 10 5 9 5 22 10 11 4 11 3 12 4 11 3 26 4 12 2 13 2h52l13-1 13-2 14-1 12-3 26-6 26-8 12-5 12-6 12-5 22-14 9-6 5-4 4-3 9-7 15-15 7-8 6-8 7-8 5-9 5-8 6-9 4-8 7-17 4-9 3-8 3-9 2-8 2-7 2-9 4-15 3-13 2-12 1-10 2-16 1-2 2-3 5-8 3-5 2-6 4-6 3-7 7-28 1-6v-4l-1-4v-6l-1-5-3-10-2-5-2-6v-3l3-5 12-17 9-13 4-8 6-10 5-10 6-11 13-26 4-9 3-8 3-9 3-8 2-9 3-8 2-15 3-16 1-14v-19l-1-7-1-12-2-11-4-10-1-4-6-12-3-2-2-4-5-5-4-1-3-2h-8l-4 3-4 2-9 9-8 12-3 5-4 6-5 10-5 11-1 1h-1l-2-2-4-6-3-11-6-15-7-17-6-9-6-10-14-20-3-5-15-15 2-2 5-3 22-11 18-10 9-7 12-9 2-4 6-8 1-4 2-4v-4l1-4-1-3v-6l-2-3v-2l-2-3-4-5-3-5-3-3-3-2-5-5-7-3-7-4-8-3-9-4-8-2-10-3-10-2-22-4h-12l-11-2h-37l-14 1-12 1-13 2-13 1-14 2-14 4-13 2-13 4-14 5-13 4-7 2-6 2-4 2-4 1h-11l-12 1h-7l-8 1-5-5-7-4-10-5-11-6-7-3-6-3-16-6-28-7h-8l-16-2h-71l-22 2-22 4-10 1-10 2-10 3-9 2-9 4-8 3-8 4-6 4-7 4-2 3-5 5-4 6-5 15v3l1 4v4l1 3v11l2 5 1 4 3 5 2 2 1 3 4 5 3 2 4 2 2 2 5 2 3 2 15 6 12 2h7l7 1 2 1h1v1l-1 2-4 2-10 8-6 5-8 7-7 7-8 10-9 10-8 12-4 7-3 7-5 7-3 8-4 9-3 9-3 8-2 11h-2v1h-1l-2-1h-1l-1-2v-2l-1-2-1-3-5-8-2-5-4-4-3-5-5-6-14-14-6-3-6-4-5-2-7-2h-10l-1 3-2 1-2 6-4 8-2 10-2 11-1 7v22l1 16 1 8 2 9 1 9 3 8 6 20 3 9 4 10 5 9 5 11 5 9 7 11 7 9 7 10 6 8 7 8 23 23 7 5 11 10 8 6z" />
<glyph unicode="&#xe699;" d="M457 450q0-20 18-40t44-39 52-42 44-59.5 18-80.5q0-52-27-99-41-70-120.5-103t-170.5-32q-76 0-141 23.5t-98 78.5q-21 34-21 75 0 46 25.5 85.5t67.5 65.5q75 47 231 57-18 24-27 42.5t-9 41.5q0 21 12 49-26-3-39-3-85 0-143 55.5t-58 139.5q0 47 21 91t57 75q44 38 104 56t124 18h239l-79-50h-75q43-36 64.5-76t21.5-91q0-42-14-74.5t-33.5-53-39.5-37.5-34-35-14-38zM373 505q22 0 45 9.5t37 25.5q31 32 31 90 0 34-10 72t-28 74-48 59-67 23q-24 0-47-11t-37-30q-27-33-27-91 0-26 5.5-55.5t18-59 30-53 42.5-38.5 55-15zM374 6q33 0 64 7.5t57 22.5 41.5 42 15.5 62q0 14-4 28t-8.5 24-15.5 23.5-16.5 20-22 20-21 17-23.5 17-21 14.5q-9 1-27 1-31 0-60.5-4t-61.5-14-55.5-26-39-42.5-15.5-60.5q0-40 20-70.5t52.5-47.5 68-25.5 72.5-8.5zM837 507h122v-62h-122v-125h-60v125h-121v62h121v124h60v-124z" />
<glyph unicode="&#xe6b8;" d="M767 953v-151h-89q-49 0-66.5-20.5t-17.5-61.5v-108h168l-23-169h-145v-434h-175v434h-145v169h145v125q0 106 59.5 164.5t158.5 58.5q84 0 130-7z" />
<glyph unicode="&#xf0082;" d="M89 886h846v-95h-846v95zM862 319v373h-700v-373h700zM264 596h497v-182h-497v182zM710 104q23 35 44.5 75.5t41.5 86.5l-102 37q-19-55-42.5-104.5t-49.5-94.5h-177q-44 117-100 199l-93-37q58-86 93-162h-260v-94h894v94h-249z" />
<glyph unicode="&#xf0097;" d="M450 431q44-26 95.5-16t83.5 52q36 47 29 106t-52.5 95.5-103.5 29.5-94-53q-27-36-29.5-81t19.5-82q-32-30-59-68t-54-94-41.5-132-12.5-163q1-15 11.5-25.5t25.5-10.5h1q15 0 25.5 11.5t9.5 26.5q-2 78 11 146t37 117 47.5 82 50.5 59zM519 907q-70 0-134-28t-110-75-73-112-27-136q0-29 4.5-57t12.5-55q5-15 18.5-21.5t28-2 21 18.5 1.5 28q-14 43-14 89 0 114 79.5 195.5t192.5 81.5q44 0 85-14t74.5-40 58.5-60 39-76 14-87q0-115-79.5-196t-191.5-81q-15 0-29.5 1.5t-28.5 4.5q-15 3-27.5-5t-16-23 5-28 22.5-17q36-8 74-8 93 0 172 47.5t125.5 128 46.5 176.5q0 142-98 244-96 101-232 107h-14z" />
</font>
</defs>
</svg>
